<svg xmlns="http://www.w3.org/2000/svg" viewBox="0 0 348.74 453.46">
  <g id="faf0d932-94f3-4f21-bb4f-36eaa72fe245" data-name="Layer 2">
    <g id="b92577be-c61b-45f6-90eb-ab9771d6d71c" data-name="Layer 1">
      <path d="M240.68,180.82a103.16,103.16,0,0,0,28.26-7.69,153.1,153.1,0,0,0,47.64-32.25c25.58-25.55,44.8-67,22-106.78-9.74-17-27-20.61-40.85-21.18A30.78,30.78,0,0,0,272.35,0H75.47A30.75,30.75,0,0,0,50.05,13c-13.68.7-30.4,4.53-39.92,21.14-22.77,39.76-3.54,81.23,22,106.78A153,153,0,0,0,79.8,173.13a103.33,103.33,0,0,0,28,7.65c6.94,3.62,10.9,10.32,7.46,20.4C109.6,217.73,93.06,223.41,77.34,218c-8.94-3.1-12.78,11.07-3.9,14.14,24.52,8.49,50.12-4.34,56.76-29.69a36,36,0,0,0,.78-3.88l29.68,55.78v19.92c0,.29,0,.58,0,.88v32.2c-49.19,2.2-97,16.69-97,41.78,0,27.36,56.81,42.1,110.27,42.1s110.25-14.74,110.25-42.1c0-25.15-48.07-39.64-97.38-41.8V286.86a22.53,22.53,0,0,1,.38-4v-28.5l30.25-56.85a35.23,35.23,0,0,0,.9,4.95c6.56,25.38,32.3,38.17,56.76,29.69,8.87-3.06,5.06-17.25-3.9-14.14-15.74,5.44-32.25-.22-37.9-16.79C229.86,191.16,233.79,184.46,240.68,180.82ZM110.31,165.34c-1.45-.17-2.87-.43-4.3-.67a48.55,48.55,0,0,0-6.08-1.27,91.75,91.75,0,0,1-14-4.67,137.19,137.19,0,0,1-42.72-28.92C21.75,108.35,5.33,74,23.71,41.88c4.37-7.63,11.37-11.14,20.78-12.54l69.22,136C112.1,165.39,110.89,165.38,110.31,165.34ZM208,320.76c2.22.28,4.38.57,6.49.89,3.41.52,6.65,1.11,9.79,1.73,4,.79,7.72,1.67,11.24,2.61,4.11,1.1,7.87,2.28,11.33,3.54,2.86,1,5.57,2.09,8,3.2l0,0c2,.92,3.82,1.88,5.5,2.85,7.82,4.49,12.05,9.27,12.05,13.49,0,12.68-37.48,30.37-98.51,30.37S75.39,361.78,75.39,349.1c0-11.73,32.15-27.72,85.31-30v17.19a12.12,12.12,0,0,0,3.84,8.85c5.88,5.41,16.84,4.45,21-2.85a11.86,11.86,0,0,0,1.29-3.22V319C194.29,319.36,201.38,320,208,320.76Zm11.74-161.55L179.46,235a15.1,15.1,0,0,0-11.09,0l-53.14-99.86L62.1,35.23a12.37,12.37,0,0,1-1.49-6.18c0-.16,0-.32.07-.48.06-.32.11-.63.16-1l0-.25c.07-.4.2-.8.3-1.2s.14-.67.25-1a11,11,0,0,1,1-2.21,14,14,0,0,1,2.38-3,14.65,14.65,0,0,1,3.07-2.22,15.55,15.55,0,0,1,4.25-1.5l.65-.13a17,17,0,0,1,2.69-.24h197a17.09,17.09,0,0,1,2.59.25c.23,0,.45.08.68.12a15.24,15.24,0,0,1,2.36.67l.08,0h0a17.18,17.18,0,0,1,1.74.8,14.66,14.66,0,0,1,4.25,3.5c.22.27.4.57.6.84s.42.55.59.84a12.19,12.19,0,0,1,1.7,5.64,12.35,12.35,0,0,1-.58,4.53,12,12,0,0,1-.79,2.11Zm14.48,6.16L303,30.19c0-.36,0-.71,0-1.07,10.08,1.27,17.48,4.79,22,12.76,18.38,32.1,2,66.47-19.52,87.93a137.26,137.26,0,0,1-42.71,28.92,93.13,93.13,0,0,1-13.36,4.53,48.52,48.52,0,0,0-7.38,1.52c-1.17.19-2.33.4-3.51.54C237.85,165.38,236.26,165.39,234.24,165.37Z" style="fill: #07959c"/>
      <rect x="24.42" y="386.42" width="299.9" height="67.04" rx="21.47" style="fill: #0077b5"/>
      <rect x="43.73" y="326.14" width="261.27" height="60.69" rx="19.44" style="fill: #385c8e"/>
      <rect x="66.08" y="268.89" width="216.58" height="56.7" rx="18.16" style="fill: #4fa246"/>
      <g>
        <path d="M174.37,45.18a47.29,47.29,0,1,0,47.28,47.29A47.29,47.29,0,0,0,174.37,45.18Zm0,87.41a40.13,40.13,0,1,1,40.12-40.12A40.12,40.12,0,0,1,174.37,132.59Z" style="fill: #ebebeb"/>
        <polygon points="193.04 118.68 175.15 110 157.86 119.82 160.59 100.12 145.91 86.71 165.48 83.22 173.7 65.11 183.07 82.65 202.83 84.88 189.05 99.2 193.04 118.68" style="fill: #eb7723"/>
      </g>
    </g>
  </g>
</svg>
