<svg xmlns="http://www.w3.org/2000/svg" viewBox="0 0 99.94 99.75">
  <g id="f5ea5b71-96e2-420e-9f8a-89eb9a48a543" data-name="Layer 2">
    <g id="b3f8b449-d0e1-45fd-bb9b-ee2fa097494d" data-name="Layer 1">
      <path d="M80.13,42.48V79.25a12,12,0,0,1-12,12H21.88a12,12,0,0,1-12-12v-49a12,12,0,0,1,12-12H54.3V9.75H12a12,12,0,0,0-12,12v66a12,12,0,0,0,12,12H78a12,12,0,0,0,12-12V42.48Z" style="fill: #ebebeb"/>
      <path d="M99.62,4.15a3.18,3.18,0,0,0,.15-.93A3.23,3.23,0,0,0,96.55,0H65.05a3.22,3.22,0,1,0,0,6.44H90.27l-60.44,49a2.86,2.86,0,0,0,3.6,4.45L92.5,12,88.9,36.23a3.22,3.22,0,1,0,6.37.94L99.9,6A3.17,3.17,0,0,0,99.62,4.15Z" style="fill: #0a969c"/>
    </g>
  </g>
</svg>
